<?xml version="1.0" encoding="iso-8859-1"?>
<!-- Generator: Adobe Illustrator 19.2.1, SVG Export Plug-In . SVG Version: 6.00 Build 0)  -->
<svg version="1.1" xmlns="http://www.w3.org/2000/svg" xmlns:xlink="http://www.w3.org/1999/xlink" x="0px" y="0px"
	 viewBox="0 0 31.52 31.761" style="enable-background:new 0 0 31.52 31.761;" xml:space="preserve">
<g id="Layer_15">
	<polygon style="fill:#99DDFF;" points="30.52,7.88 21.74,11.98 21.52,11.88 15.76,14.76 10,11.88 9.78,11.98 1,7.88 15.76,1 	"/>
	<polygon style="fill:#FFD580;" points="15.76,22.76 9.78,19.98 1,23.88 15.76,30.76 30.52,23.88 21.74,19.98 	"/>
	<path style="fill:#664848;" d="M31.52,15.871c-0.004-0.392-0.236-0.745-0.594-0.904l-6.774-3.009l6.791-3.171
		c0.352-0.165,0.577-0.518,0.577-0.906s-0.225-0.742-0.578-0.906l-14.76-6.88c-0.269-0.125-0.576-0.125-0.845,0l-14.76,6.88
		C0.225,7.138,0,7.491,0,7.88s0.224,0.742,0.577,0.906l6.791,3.171l-6.774,3.009C0.236,15.126,0.004,15.479,0,15.871
		c-0.004,0.392,0.222,0.75,0.577,0.916l6.791,3.171l-6.774,3.009C0.236,23.126,0.004,23.479,0,23.871
		c-0.004,0.392,0.222,0.75,0.577,0.915l14.76,6.88c0.269,0.125,0.576,0.125,0.845,0l14.76-6.88c0.355-0.166,0.581-0.523,0.577-0.915
		c-0.004-0.392-0.236-0.746-0.594-0.905l-6.774-3.009l6.791-3.171C31.298,16.621,31.524,16.263,31.52,15.871z M3.365,7.881
		L15.76,2.104l12.395,5.778l-6.836,3.192h0l-5.451,2.534l-0.108,0.05l-0.108-0.05l-5.451-2.534h0L3.365,7.881z M28.106,23.902
		L15.76,29.657L3.414,23.902l6.357-2.824l5.568,2.588c0.266,0.124,0.577,0.124,0.843,0l5.568-2.588L28.106,23.902z M21.318,19.074
		L21.318,19.074l-5.558,2.584l-5.558-2.584h0l-6.789-3.17l6.358-2.824l5.568,2.588c0.266,0.124,0.577,0.124,0.843,0l5.568-2.588
		l6.358,2.824L21.318,19.074z"/>
</g>
<g id="Layer_1">
</g>
</svg>
